<?xml version="1.0" standalone="no"?>
<!DOCTYPE svg PUBLIC "-//W3C//DTD SVG 20010904//EN"
 "http://www.w3.org/TR/2001/REC-SVG-20010904/DTD/svg10.dtd">
<svg version="1.0" xmlns="http://www.w3.org/2000/svg"
 width="260.000000pt" height="260.000000pt" viewBox="0 0 260.000000 260.000000"
 preserveAspectRatio="xMidYMid meet">
<metadata>
Created by potrace 1.11, written by Peter Selinger 2001-2013
</metadata>
<g transform="translate(0.000000,260.000000) scale(0.100000,-0.100000)"
fill="#000000" stroke="none">
<path d="M866 1796 c-26 -29 -76 -128 -76 -152 0 -9 16 -31 35 -50 30 -28 41
-32 77 -30 31 3 48 11 65 30 21 25 53 112 53 146 0 31 -71 80 -116 80 -8 0
-25 -11 -38 -24z"/>
<path d="M1815 1808 c-158 -29 -285 -102 -371 -214 -77 -100 -73 -285 9 -372
49 -53 172 -97 287 -101 203 -9 262 -32 279 -113 l7 -33 29 60 c40 83 41 167
3 217 -37 49 -123 86 -238 104 -51 8 -141 34 -172 50 -42 22 -63 69 -49 114
27 90 149 148 315 148 323 1 578 -238 427 -401 -14 -16 -61 -49 -104 -75 -168
-100 -205 -179 -142 -307 13 -28 37 -63 52 -77 l28 -27 0 63 c1 107 47 158
179 198 91 27 160 72 197 127 40 60 52 112 46 196 -16 247 -288 442 -627 450
-58 1 -127 -1 -155 -7z"/>
<path d="M617 1567 c-4 -16 -26 -48 -49 -73 -67 -73 -153 -116 -258 -128 -92
-11 -113 -16 -161 -43 -100 -54 -149 -137 -145 -245 3 -83 34 -151 97 -210 81
-76 126 -88 304 -83 83 3 161 7 175 9 14 3 37 8 53 11 15 3 37 7 50 9 89 16
221 65 293 111 139 89 200 227 157 357 -40 124 -165 186 -232 115 -56 -60 -73
-188 -31 -232 27 -29 79 -33 122 -11 30 16 38 12 38 -20 0 -41 -67 -75 -236
-119 -201 -52 -431 -77 -511 -56 -49 14 -97 51 -119 94 -20 38 -14 110 12 139
21 23 84 54 124 61 109 20 192 61 249 122 55 60 83 123 79 178 -3 39 -4 40
-11 14z"/>
<path d="M1285 1298 c-14 -63 -64 -199 -88 -241 -41 -69 -133 -144 -274 -223
-57 -31 -63 -49 -17 -49 35 -1 149 20 185 34 32 12 93 81 117 133 20 44 30 48
30 14 0 -38 35 -99 69 -118 77 -45 155 -24 297 81 55 40 119 82 143 93 49 21
126 28 187 15 36 -8 39 -7 26 8 -7 9 -34 25 -59 37 -63 29 -175 21 -296 -20
-170 -58 -228 -50 -272 37 -22 42 -24 91 -10 206 1 11 -5 21 -15 23 -11 2 -18
-6 -23 -30z"/>
</g>
</svg>
